<svg width="36" height="30" viewBox="0 0 36 30" fill="none" xmlns="http://www.w3.org/2000/svg">
<rect x="0.554688" y="0.625" width="34.8916" height="28.3301" rx="4.27968" stroke="black"/>
<path fill-rule="evenodd" clip-rule="evenodd" d="M29.2784 6.09961H27.4028V23.4804H29.2784V6.09961Z" fill="black"/>
<path fill-rule="evenodd" clip-rule="evenodd" d="M14.2366 6.09961H12.978V23.4804H14.249L14.2366 6.09961Z" fill="black"/>
<path fill-rule="evenodd" clip-rule="evenodd" d="M18.6302 6.09961H17.3716V23.4804H18.6302V6.09961Z" fill="black"/>
<path fill-rule="evenodd" clip-rule="evenodd" d="M23.0101 6.09961H21.7515V23.4804H23.0101V6.09961Z" fill="black"/>
<path fill-rule="evenodd" clip-rule="evenodd" d="M9.84383 6.09961H8.59753V23.4804H9.83149L9.84383 6.09961Z" fill="black"/>
<path fill-rule="evenodd" clip-rule="evenodd" d="M6.70967 6.09961H6.08035V23.4805H6.70967V6.09961Z" fill="black"/>
<path fill-rule="evenodd" clip-rule="evenodd" d="M25.5149 6.09961H24.8856V23.4804H25.5149V6.09961Z" fill="black"/>
<path fill-rule="evenodd" clip-rule="evenodd" d="M26.7738 6.09961H26.1444V23.4804H26.7738V6.09961Z" fill="black"/>
<path fill-rule="evenodd" clip-rule="evenodd" d="M4.83398 23.4805H5.4633V6.09961H4.83398V23.4805Z" fill="black"/>
<path fill-rule="evenodd" clip-rule="evenodd" d="M24.2691 6.09961H23.6398V23.4804H24.2691V6.09961Z" fill="black"/>
<path fill-rule="evenodd" clip-rule="evenodd" d="M31.1662 6.09961H30.5369V23.4804H31.1662V6.09961Z" fill="black"/>
<path fill-rule="evenodd" clip-rule="evenodd" d="M15.4956 6.09961H14.8663V23.4804H15.4956V6.09961Z" fill="black"/>
<path fill-rule="evenodd" clip-rule="evenodd" d="M19.8755 6.09961H19.2462V23.4804H19.8755V6.09961Z" fill="black"/>
<path fill-rule="evenodd" clip-rule="evenodd" d="M11.1027 6.09961H10.4733V23.4804H11.1027V6.09961Z" fill="black"/>
</svg>
