<svg width="45" height="30" viewBox="0 0 45 30" fill="none" xmlns="http://www.w3.org/2000/svg">
<g clip-path="url(#clip0_3561_8050)">
<g clip-path="url(#clip1_3561_8050)">
<g clip-path="url(#clip2_3561_8050)">
<path d="M39.7831 0.125H3.96731C1.80751 0.125 0.0566406 1.87586 0.0566406 4.03567V25.3058C0.0566406 27.4656 1.80751 29.2164 3.96731 29.2164H39.7831C41.9429 29.2164 43.6938 27.4656 43.6938 25.3058V4.03567C43.6938 1.87586 41.9429 0.125 39.7831 0.125Z" fill="#4AB7A8"/>
<path d="M15.9255 20.1159C16.3312 20.1173 16.7331 20.0381 17.1078 19.883C17.4826 19.7278 17.8229 19.4997 18.1088 19.2119L21.2604 16.0605C21.3722 15.9538 21.5207 15.8943 21.6753 15.8943C21.8298 15.8943 21.9785 15.9538 22.0903 16.0605L25.2541 19.225C25.5405 19.5123 25.881 19.7401 26.256 19.895C26.6309 20.0499 27.033 20.1291 27.4387 20.1275H28.0602L24.0664 24.1195C23.7701 24.4163 23.4182 24.6518 23.0309 24.8126C22.6434 24.9733 22.2281 25.0562 21.8088 25.0562C21.3893 25.0562 20.9741 24.9733 20.5866 24.8126C20.1992 24.6518 19.8473 24.4163 19.5511 24.1195L15.541 20.1159H15.9255ZM27.4387 8.96382C27.0331 8.9626 26.6314 9.04179 26.2566 9.19685C25.8818 9.3519 25.5416 9.5797 25.2554 9.86713L22.0962 13.033C21.9861 13.1428 21.8369 13.2044 21.6815 13.2044C21.5259 13.2044 21.3769 13.1428 21.2668 13.033L18.1154 9.88077C17.8293 9.59295 17.4892 9.36486 17.1144 9.20965C16.7395 9.0545 16.3376 8.97531 15.932 8.97682H15.541L19.5511 4.97066C20.15 4.37197 20.962 4.03564 21.8088 4.03564C22.6555 4.03564 23.4676 4.37197 24.0664 4.97066L28.0602 8.96313L27.4387 8.96382Z" fill="white"/>
<path d="M12.2363 12.2882L14.621 9.90299H15.9269C16.4996 9.90363 17.0483 10.1303 17.4549 10.5328L20.6064 13.6844C20.7469 13.8257 20.9138 13.9377 21.0977 14.0141C21.2815 14.0907 21.4788 14.13 21.6779 14.13C21.8771 14.13 22.0742 14.0907 22.2581 14.0141C22.442 13.9377 22.609 13.8257 22.7494 13.6844L25.9133 10.5205C26.3198 10.1175 26.8689 9.89111 27.4413 9.89062H28.9895L31.3845 12.2856C31.9832 12.8843 32.3195 13.6964 32.3195 14.5432C32.3195 15.39 31.9832 16.202 31.3845 16.8009L28.9895 19.1958H27.44C26.868 19.1958 26.3185 18.9685 25.9119 18.566L22.7488 15.4008C22.4602 15.1251 22.0763 14.9714 21.6772 14.9714C21.2782 14.9714 20.8945 15.1251 20.6058 15.4008L17.4543 18.5524C17.0477 18.9549 16.499 19.1822 15.9263 19.1822H14.621L12.2363 16.8035C11.9397 16.5071 11.7045 16.1552 11.544 15.7677C11.3833 15.3803 11.3008 14.9652 11.3008 14.5459C11.3008 14.1266 11.3833 13.7113 11.544 13.3239C11.7045 12.9366 11.9397 12.5847 12.2363 12.2882Z" fill="white"/>
</g>
</g>
</g>
<defs>
<clipPath id="clip0_3561_8050">
<rect width="44" height="29.33" fill="white" transform="translate(0.0546875 0.125)"/>
</clipPath>
<clipPath id="clip1_3561_8050">
<rect width="44" height="29.33" fill="white" transform="translate(0.0546875 0.125)"/>
</clipPath>
<clipPath id="clip2_3561_8050">
<rect width="43.995" height="29.33" fill="white" transform="translate(0.0566406 0.125)"/>
</clipPath>
</defs>
</svg>
