<svg width="19" height="21" viewBox="0 0 19 21" fill="none" xmlns="http://www.w3.org/2000/svg">
<g clip-path="url(#clip0_3561_8061)">
<g clip-path="url(#clip1_3561_8061)">
<path d="M17.5195 3.45508C14.8561 3.45508 12.2615 2.5116 9.71953 0.605078C9.45286 0.405078 9.0862 0.405078 8.81953 0.605078C6.2775 2.5116 3.68294 3.45508 1.01953 3.45508C0.605317 3.45508 0.269531 3.79087 0.269531 4.20508V9.45508C0.269531 14.4563 3.22709 18.1308 8.99464 20.4029C9.17129 20.4725 9.36777 20.4725 9.54442 20.4029C15.3119 18.1308 18.2695 14.4563 18.2695 9.45508V4.20508C18.2695 3.79087 17.9337 3.45508 17.5195 3.45508ZM14.0263 7.75795L8.02632 13.258C7.73032 13.5293 7.27313 13.5194 6.9892 13.2354L4.4892 10.7354C4.19631 10.4425 4.19631 9.96764 4.4892 9.67475C4.78209 9.38186 5.25697 9.38186 5.54986 9.67475L7.54209 11.667L13.0127 6.65222C13.318 6.37232 13.7925 6.39295 14.0724 6.69829C14.3523 7.00363 14.3316 7.47805 14.0263 7.75795Z" fill="#6ACD85"/>
</g>
</g>
<defs>
<clipPath id="clip0_3561_8061">
<rect width="18" height="20" fill="white" transform="translate(0.269531 0.455078)"/>
</clipPath>
<clipPath id="clip1_3561_8061">
<rect width="18" height="20" fill="white" transform="translate(0.269531 0.455078)"/>
</clipPath>
</defs>
</svg>
