<svg width="108" height="31" viewBox="0 0 108 31" fill="none" xmlns="http://www.w3.org/2000/svg">
<g clip-path="url(#clip0_3561_7850)">
<g clip-path="url(#clip1_3561_7850)">
<path d="M8.5 25.6094C8.5 25.6094 17 21.4094 17 15.1094V7.75938L8.5 4.60938L0 7.75938V15.1094C0 21.4094 8.5 25.6094 8.5 25.6094Z" fill="#008000"/>
<path d="M27.5975 12.6093V3.88202H31.0406C31.7026 3.88202 32.2665 4.00844 32.7324 4.26128C33.1983 4.51128 33.5534 4.85929 33.7978 5.30531C34.0449 5.74849 34.1685 6.25986 34.1685 6.8394C34.1685 7.41895 34.0435 7.93031 33.7935 8.37349C33.5435 8.81668 33.1813 9.16185 32.7068 9.40901C32.2353 9.65616 31.6642 9.77974 30.9938 9.77974H28.7992V8.30105H30.6955C31.0506 8.30105 31.3432 8.23997 31.5733 8.11781C31.8063 7.99281 31.9796 7.82094 32.0932 7.60219C32.2097 7.3806 32.2679 7.12634 32.2679 6.8394C32.2679 6.54963 32.2097 6.29679 32.0932 6.08088C31.9796 5.86213 31.8063 5.6931 31.5733 5.57378C31.3404 5.45162 31.0449 5.39054 30.687 5.39054H29.4426V12.6093H27.5975ZM35.8634 12.6093H33.8862L36.899 3.88202H39.2768L42.2853 12.6093H40.308L38.122 5.87634H38.0538L35.8634 12.6093ZM35.7399 9.17889H40.4103V10.6192H35.7399V9.17889ZM48.7125 6.70304C48.6529 6.49565 48.5691 6.31241 48.4611 6.15332C48.3531 5.99139 48.221 5.85503 48.0648 5.74423C47.9114 5.6306 47.7353 5.54395 47.5364 5.48429C47.3404 5.42463 47.123 5.3948 46.8844 5.3948C46.4384 5.3948 46.0463 5.5056 45.7083 5.72719C45.373 5.94878 45.1117 6.27122 44.9242 6.69452C44.7367 7.11497 44.6429 7.62918 44.6429 8.23713C44.6429 8.84509 44.7353 9.36213 44.9199 9.78827C45.1046 10.2144 45.3659 10.5397 45.704 10.7641C46.0421 10.9857 46.4412 11.0965 46.9014 11.0965C47.3191 11.0965 47.6756 11.0227 47.971 10.8749C48.2693 10.7244 48.4966 10.5127 48.6529 10.24C48.812 9.96724 48.8915 9.6448 48.8915 9.27264L49.2665 9.32804H47.0165V7.93884H50.6685V9.03827C50.6685 9.80531 50.5066 10.4644 50.1827 11.0155C49.8588 11.5638 49.4128 11.9871 48.8446 12.2854C48.2764 12.5809 47.6259 12.7286 46.8929 12.7286C46.0747 12.7286 45.356 12.5482 44.7367 12.1874C44.1174 11.8238 43.6344 11.3082 43.2878 10.6405C42.9441 9.97009 42.7722 9.17463 42.7722 8.25418C42.7722 7.54679 42.8745 6.91611 43.079 6.36213C43.2864 5.80531 43.5762 5.33372 43.9483 4.94736C44.3205 4.56099 44.7537 4.26696 45.248 4.06526C45.7424 3.86355 46.2779 3.7627 46.8546 3.7627C47.3489 3.7627 47.8091 3.83514 48.2353 3.98003C48.6614 4.12207 49.0392 4.32378 49.3688 4.58514C49.7012 4.84651 49.9725 5.15759 50.1827 5.51838C50.3929 5.87634 50.5279 6.27122 50.5875 6.70304H48.7125ZM53.2892 12.6093H51.312L54.3247 3.88202H56.7026L59.7111 12.6093H57.7338L55.5478 5.87634H55.4796L53.2892 12.6093ZM53.1656 9.17889H57.8361V10.6192H53.1656V9.17889ZM60.7615 3.88202H63.0371L65.4405 9.74565H65.5428L67.9462 3.88202H70.2218V12.6093H68.432V6.92889H68.3595L66.101 12.5667H64.8823L62.6237 6.90759H62.5513V12.6093H60.7615V3.88202ZM71.742 12.6093V3.88202H77.6227V5.40332H73.5872V7.48287H77.3201V9.00418H73.5872V11.088H77.6397V12.6093H71.742ZM86.3894 3.88202V12.6093H84.7956L80.9987 7.11639H80.9348V12.6093H79.0897V3.88202H80.709L84.476 9.37065H84.5527V3.88202H86.3894ZM87.5815 5.40332V3.88202H94.7491V5.40332H92.0772V12.6093H90.2534V5.40332H87.5815ZM103.551 8.24565C103.551 9.19736 103.37 10.007 103.01 10.6746C102.652 11.3423 102.163 11.8522 101.544 12.2045C100.927 12.5539 100.234 12.7286 99.4643 12.7286C98.6887 12.7286 97.9927 12.5525 97.3762 12.2002C96.7598 11.8479 96.2725 11.338 95.9146 10.6704C95.5566 10.0028 95.3777 9.19452 95.3777 8.24565C95.3777 7.29395 95.5566 6.48429 95.9146 5.81668C96.2725 5.14906 96.7598 4.64054 97.3762 4.29111C97.9927 3.93884 98.6887 3.7627 99.4643 3.7627C100.234 3.7627 100.927 3.93884 101.544 4.29111C102.163 4.64054 102.652 5.14906 103.01 5.81668C103.37 6.48429 103.551 7.29395 103.551 8.24565ZM101.68 8.24565C101.68 7.62918 101.588 7.10929 101.403 6.68599C101.221 6.2627 100.964 5.94168 100.632 5.72293C100.299 5.50418 99.9103 5.3948 99.4643 5.3948C99.0183 5.3948 98.6291 5.50418 98.2967 5.72293C97.9643 5.94168 97.7058 6.2627 97.5211 6.68599C97.3393 7.10929 97.2484 7.62918 97.2484 8.24565C97.2484 8.86213 97.3393 9.38202 97.5211 9.80531C97.7058 10.2286 97.9643 10.5496 98.2967 10.7684C98.6291 10.9871 99.0183 11.0965 99.4643 11.0965C99.9103 11.0965 100.299 10.9871 100.632 10.7684C100.964 10.5496 101.221 10.2286 101.403 9.80531C101.588 9.38202 101.68 8.86213 101.68 8.24565ZM27.6379 18.882V27.6093H26.3169V20.2031H26.2658L24.1777 21.5667V20.3053L26.3553 18.882H27.6379ZM33.0371 27.7542C32.3638 27.7513 31.7885 27.5738 31.3112 27.2215C30.834 26.8692 30.4689 26.3565 30.2161 25.6832C29.9632 25.0099 29.8368 24.1988 29.8368 23.2499C29.8368 22.3039 29.9632 21.4957 30.2161 20.8252C30.4718 20.1548 30.8382 19.6434 31.3155 19.2911C31.7956 18.9388 32.3695 18.7627 33.0371 18.7627C33.7047 18.7627 34.2772 18.9403 34.7544 19.2954C35.2317 19.6477 35.5968 20.159 35.8496 20.8295C36.1053 21.4971 36.2331 22.3039 36.2331 23.2499C36.2331 24.2016 36.1067 25.0141 35.8539 25.6874C35.601 26.3579 35.236 26.8707 34.7587 27.2258C34.2814 27.5781 33.7076 27.7542 33.0371 27.7542ZM33.0371 26.6164C33.628 26.6164 34.0897 26.3281 34.422 25.7513C34.7573 25.1746 34.9249 24.3408 34.9249 23.2499C34.9249 22.5255 34.8482 21.9133 34.6948 21.4133C34.5442 20.9104 34.3269 20.5298 34.0428 20.2712C33.7615 20.0099 33.4263 19.8792 33.0371 19.8792C32.449 19.8792 31.9874 20.169 31.6522 20.7485C31.3169 21.328 31.1479 22.1619 31.1451 23.2499C31.1451 23.9772 31.2203 24.5923 31.3709 25.0951C31.5243 25.5951 31.7416 25.9744 32.0229 26.2329C32.3041 26.4886 32.6422 26.6164 33.0371 26.6164ZM40.7832 27.7542C40.1099 27.7513 39.5346 27.5738 39.0573 27.2215C38.5801 26.8692 38.215 26.3565 37.9622 25.6832C37.7093 25.0099 37.5829 24.1988 37.5829 23.2499C37.5829 22.3039 37.7093 21.4957 37.9622 20.8252C38.2179 20.1548 38.5843 19.6434 39.0616 19.2911C39.5417 18.9388 40.1156 18.7627 40.7832 18.7627C41.4508 18.7627 42.0232 18.9403 42.5005 19.2954C42.9778 19.6477 43.3429 20.159 43.5957 20.8295C43.8514 21.4971 43.9792 22.3039 43.9792 23.2499C43.9792 24.2016 43.8528 25.0141 43.6 25.6874C43.3471 26.3579 42.9821 26.8707 42.5048 27.2258C42.0275 27.5781 41.4536 27.7542 40.7832 27.7542ZM40.7832 26.6164C41.3741 26.6164 41.8357 26.3281 42.1681 25.7513C42.5034 25.1746 42.671 24.3408 42.671 23.2499C42.671 22.5255 42.5943 21.9133 42.4409 21.4133C42.2903 20.9104 42.073 20.5298 41.7889 20.2712C41.5076 20.0099 41.1724 19.8792 40.7832 19.8792C40.1951 19.8792 39.7335 20.169 39.3982 20.7485C39.063 21.328 38.894 22.1619 38.8911 23.2499C38.8911 23.9772 38.9664 24.5923 39.117 25.0951C39.2704 25.5951 39.4877 25.9744 39.769 26.2329C40.0502 26.4886 40.3883 26.6164 40.7832 26.6164ZM50.0463 25.9729V25.5127C50.0463 25.1832 50.1145 24.882 50.2509 24.6093C50.3901 24.3337 50.5918 24.1136 50.856 23.9488C51.123 23.7812 51.4455 23.6974 51.8233 23.6974C52.2097 23.6974 52.5335 23.7798 52.7949 23.9445C53.0563 24.1093 53.2537 24.3295 53.3872 24.605C53.5236 24.8806 53.5918 25.1832 53.5918 25.5127V25.9729C53.5918 26.3025 53.5236 26.605 53.3872 26.8806C53.2509 27.1533 53.0506 27.3735 52.7864 27.5411C52.525 27.7059 52.204 27.7883 51.8233 27.7883C51.4398 27.7883 51.1159 27.7059 50.8517 27.5411C50.5875 27.3735 50.3872 27.1533 50.2509 26.8806C50.1145 26.605 50.0463 26.3025 50.0463 25.9729ZM51.0392 25.5127V25.9729C51.0392 26.2173 51.0975 26.4388 51.2139 26.6377C51.3304 26.8366 51.5335 26.936 51.8233 26.936C52.1103 26.936 52.3105 26.8366 52.4242 26.6377C52.5378 26.4388 52.5946 26.2173 52.5946 25.9729V25.5127C52.5946 25.2684 52.5392 25.0468 52.4284 24.8479C52.3205 24.6491 52.1188 24.5496 51.8233 24.5496C51.5392 24.5496 51.3375 24.6491 51.2182 24.8479C51.0989 25.0468 51.0392 25.2684 51.0392 25.5127ZM45.6571 20.9786V20.5184C45.6571 20.1888 45.7253 19.8863 45.8617 19.6107C46.0009 19.3352 46.2026 19.115 46.4668 18.9502C46.7338 18.7854 47.0563 18.7031 47.4341 18.7031C47.8205 18.7031 48.1443 18.7854 48.4057 18.9502C48.6671 19.115 48.8645 19.3352 48.998 19.6107C49.1316 19.8863 49.1983 20.1888 49.1983 20.5184V20.9786C49.1983 21.3082 49.1301 21.6107 48.9938 21.8863C48.8603 22.159 48.6614 22.3792 48.3972 22.5468C48.1358 22.7116 47.8148 22.794 47.4341 22.794C47.0478 22.794 46.7225 22.7116 46.4583 22.5468C46.1969 22.3792 45.998 22.159 45.8617 21.8863C45.7253 21.6107 45.6571 21.3082 45.6571 20.9786ZM46.6543 20.5184V20.9786C46.6543 21.2229 46.7111 21.4445 46.8247 21.6434C46.9412 21.8423 47.1443 21.9417 47.4341 21.9417C47.7182 21.9417 47.9171 21.8423 48.0307 21.6434C48.1472 21.4445 48.2054 21.2229 48.2054 20.9786V20.5184C48.2054 20.2741 48.15 20.0525 48.0392 19.8536C47.9284 19.6548 47.7267 19.5553 47.4341 19.5553C47.15 19.5553 46.9483 19.6548 46.829 19.8536C46.7125 20.0525 46.6543 20.2741 46.6543 20.5184ZM46.062 27.6093L52.062 18.882H53.0804L47.0804 27.6093H46.062ZM63.4835 21.1746C63.438 20.7712 63.2505 20.4587 62.921 20.2371C62.5914 20.0127 62.1767 19.9005 61.6767 19.9005C61.3187 19.9005 61.009 19.9573 60.7477 20.0709C60.4863 20.1817 60.2832 20.3352 60.1383 20.5312C59.9963 20.7244 59.9252 20.9445 59.9252 21.1917C59.9252 21.3991 59.9735 21.578 60.0701 21.7286C60.1696 21.8792 60.2988 22.0056 60.4579 22.1079C60.6198 22.2073 60.7931 22.2911 60.9778 22.3593C61.1625 22.4246 61.34 22.4786 61.5105 22.5212L62.3627 22.7428C62.6411 22.811 62.9267 22.9033 63.2193 23.0198C63.5119 23.1363 63.7832 23.2897 64.0332 23.48C64.2832 23.6704 64.4849 23.9062 64.6383 24.1874C64.7946 24.4687 64.8727 24.8053 64.8727 25.1974C64.8727 25.6917 64.7448 26.1306 64.4892 26.5141C64.2363 26.8977 63.8684 27.2002 63.3855 27.4218C62.9054 27.6434 62.3244 27.7542 61.6426 27.7542C60.9892 27.7542 60.4238 27.6505 59.9465 27.4431C59.4693 27.2357 59.0957 26.9417 58.8258 26.561C58.5559 26.1775 58.4068 25.7229 58.3784 25.1974H59.6994C59.725 25.5127 59.8272 25.7755 60.0062 25.9857C60.188 26.1931 60.4196 26.3479 60.7008 26.4502C60.9849 26.5496 61.296 26.5994 61.634 26.5994C62.0062 26.5994 62.3372 26.5411 62.6269 26.4246C62.9196 26.3053 63.1497 26.1405 63.3173 25.9303C63.4849 25.7173 63.5687 25.4687 63.5687 25.1846C63.5687 24.9261 63.4948 24.7144 63.3471 24.5496C63.2022 24.3849 63.0048 24.2485 62.7548 24.1405C62.5076 24.0326 62.2278 23.9374 61.9153 23.855L60.884 23.5738C60.1852 23.3834 59.6312 23.1036 59.2221 22.7343C58.8159 22.365 58.6127 21.8763 58.6127 21.2684C58.6127 20.7655 58.7491 20.3266 59.0218 19.9516C59.2946 19.5766 59.6639 19.2854 60.1298 19.0781C60.5957 18.8678 61.1213 18.7627 61.7065 18.7627C62.2974 18.7627 62.8187 18.8664 63.2704 19.0738C63.725 19.2812 64.0829 19.5667 64.3443 19.9303C64.6056 20.2911 64.742 20.7059 64.7534 21.1746H63.4835ZM66.4462 27.6093V18.882H71.9178V20.0155H67.7629V22.6746H71.6323V23.8039H67.7629V26.4758H71.9689V27.6093H66.4462ZM79.5829 21.6391C79.5005 21.3806 79.3897 21.1491 79.2505 20.9445C79.1142 20.7371 78.9508 20.561 78.7605 20.4161C78.5701 20.2684 78.3528 20.1562 78.1085 20.0795C77.867 20.0028 77.6014 19.9644 77.3116 19.9644C76.8201 19.9644 76.3769 20.0908 75.9821 20.3437C75.5872 20.5965 75.2747 20.9673 75.0446 21.4559C74.8173 21.9417 74.7036 22.5369 74.7036 23.2414C74.7036 23.9488 74.8187 24.5468 75.0488 25.0354C75.2789 25.5241 75.5943 25.8948 75.9948 26.1477C76.3954 26.4005 76.8514 26.5269 77.3627 26.5269C77.8372 26.5269 78.2505 26.4303 78.6028 26.2371C78.9579 26.044 79.2321 25.7712 79.4252 25.419C79.6213 25.0638 79.7193 24.6462 79.7193 24.1661L80.0602 24.23H77.563V23.1434H80.9934V24.1363C80.9934 24.8692 80.8372 25.5056 80.5247 26.0454C80.215 26.5823 79.786 26.9971 79.2377 27.2897C78.6923 27.5823 78.0673 27.7286 77.3627 27.7286C76.573 27.7286 75.8798 27.5468 75.2832 27.1832C74.6894 26.8195 74.2264 26.3039 73.894 25.6363C73.5616 24.9658 73.3954 24.1704 73.3954 23.2499C73.3954 22.5539 73.492 21.9289 73.6852 21.3749C73.8784 20.8209 74.1497 20.3508 74.4991 19.9644C74.8514 19.5752 75.2647 19.2783 75.7392 19.0738C76.2164 18.8664 76.7377 18.7627 77.3031 18.7627C77.7747 18.7627 78.2136 18.8323 78.6198 18.9715C79.0289 19.1107 79.3926 19.3082 79.7107 19.5638C80.0318 19.8195 80.2974 20.1235 80.5076 20.4758C80.7179 20.8252 80.8599 21.213 80.9338 21.6391H79.5829ZM88.2772 18.882H89.5982V24.6221C89.5982 25.2329 89.4547 25.7741 89.1678 26.2457C88.8808 26.7144 88.4774 27.0837 87.9576 27.3536C87.4377 27.6207 86.8283 27.7542 86.1294 27.7542C85.4334 27.7542 84.8254 27.6207 84.3056 27.3536C83.7857 27.0837 83.3823 26.7144 83.0953 26.2457C82.8084 25.7741 82.6649 25.2329 82.6649 24.6221V18.882H83.9817V24.5155C83.9817 24.9104 84.0683 25.2613 84.2416 25.5681C84.4178 25.8749 84.6664 26.1164 84.9874 26.2925C85.3084 26.4658 85.6891 26.5525 86.1294 26.5525C86.5726 26.5525 86.9547 26.4658 87.2757 26.2925C87.5996 26.1164 87.8468 25.8749 88.0172 25.5681C88.1905 25.2613 88.2772 24.9104 88.2772 24.5155V18.882ZM91.5126 27.6093V18.882H94.6234C95.2995 18.882 95.8606 18.9985 96.3066 19.2315C96.7555 19.4644 97.0907 19.7869 97.3123 20.1988C97.5339 20.6079 97.6447 21.0809 97.6447 21.6178C97.6447 22.1519 97.5325 22.6221 97.308 23.0283C97.0865 23.4317 96.7512 23.7457 96.3024 23.9701C95.8563 24.1945 95.2953 24.3067 94.6191 24.3067H92.2626V23.1732H94.4998C94.9259 23.1732 95.2725 23.1121 95.5396 22.99C95.8095 22.8678 96.0069 22.6903 96.1319 22.4573C96.2569 22.2244 96.3194 21.9445 96.3194 21.6178C96.3194 21.2883 96.2555 21.0028 96.1277 20.7613C96.0027 20.5198 95.8052 20.3352 95.5353 20.2073C95.2683 20.0766 94.9174 20.0113 94.4828 20.0113H92.8294V27.6093H91.5126ZM95.8208 23.6718L97.9771 27.6093H96.4771L94.3634 23.6718H95.8208ZM106.828 23.2457C106.828 24.1775 106.657 24.9786 106.316 25.6491C105.976 26.3167 105.508 26.8309 104.914 27.1917C104.324 27.5496 103.652 27.7286 102.899 27.7286C102.143 27.7286 101.468 27.5496 100.875 27.1917C100.284 26.8309 99.818 26.3153 99.4771 25.6448C99.1362 24.9744 98.9657 24.1746 98.9657 23.2457C98.9657 22.3138 99.1362 21.5141 99.4771 20.8465C99.818 20.1761 100.284 19.6619 100.875 19.3039C101.468 18.9431 102.143 18.7627 102.899 18.7627C103.652 18.7627 104.324 18.9431 104.914 19.3039C105.508 19.6619 105.976 20.1761 106.316 20.8465C106.657 21.5141 106.828 22.3138 106.828 23.2457ZM105.524 23.2457C105.524 22.5354 105.409 21.9374 105.179 21.4516C104.951 20.963 104.639 20.5937 104.241 20.3437C103.846 20.0908 103.399 19.9644 102.899 19.9644C102.396 19.9644 101.947 20.0908 101.552 20.3437C101.157 20.5937 100.845 20.963 100.615 21.4516C100.387 21.9374 100.274 22.5354 100.274 23.2457C100.274 23.9559 100.387 24.5553 100.615 25.044C100.845 25.5298 101.157 25.8991 101.552 26.1519C101.947 26.4019 102.396 26.5269 102.899 26.5269C103.399 26.5269 103.846 26.4019 104.241 26.1519C104.639 25.8991 104.951 25.5298 105.179 25.044C105.409 24.5553 105.524 23.9559 105.524 23.2457Z" fill="#008000"/>
</g>
</g>
<defs>
<clipPath id="clip0_3561_7850">
<rect width="108" height="30" fill="white" transform="translate(0 0.609375)"/>
</clipPath>
<clipPath id="clip1_3561_7850">
<rect width="108" height="30" fill="white" transform="translate(0 0.609375)"/>
</clipPath>
</defs>
</svg>
